<?xml version="1.0" encoding="utf-8"?>
<!--Svg Vector Icons : http://www.onlinewebfonts.com/icon-->
<!DOCTYPE svg PUBLIC "-//W3C//DTD SVG 1.1//EN" "http://www.w3.org/Graphics/SVG/1.1/DTD/svg11.dtd">
<svg xmlns="http://www.w3.org/2000/svg" xmlns:xlink="http://www.w3.org/1999/xlink" x="0px" y="0px" enable-background="new 0 0 1000 1000" version="1.1" viewBox="0 0 1000 1000" xml:space="preserve">
    <metadata>
        Svg Vector Icons : http://www.onlinewebfonts.com/icon
    </metadata>
    <g>
        <g transform="translate(0.000000,511.000000) scale(0.100000,-0.100000)">
            <path d="M4688.6,4997.3c-571.2-53.1-1083.9-231.1-1546.2-536.6c-797-526-1301.8-1275.2-1498.4-2223.7c-63.8-305.5-66.4-937.8-2.7-1254c324.1-1628.6,1716.2-2784.2,3352.8-2784.2c919.2,0,1750.8,348,2407,1006.9c443.7,443.7,730.6,935.2,884.7,1514.3c470.2,1756.1-518.1,3565.3-2258.2,4133.9C5637,4981.4,5108.3,5037.2,4688.6,4997.3z M5738,4218.9c977.7-292.2,1708.3-1078.6,1915.5-2061.6c58.4-268.3,63.8-812.9,13.3-1049.4C7544.5,523.4,7284.2,53.2,6861.7-356c-472.9-459.6-1068-714.6-1748.1-746.5c-797-37.2-1546.2,268.3-2098.8,858.1c-313.5,334.8-534,738.6-656.2,1200.8c-55.8,215.2-66.4,318.8-69.1,629.6c0,411.8,31.9,605.7,167.4,969.7c308.2,847.5,1068,1503.7,1966,1703C4768.3,4335.8,5411.2,4314.6,5738,4218.9z"/>
            <path d="M4720.5,3748.7c-417.1-47.8-871.4-263-1190.2-563.2c-395.8-369.3-619-815.6-680.1-1360.2c-26.6-236.4-26.6-276.3,15.9-364c82.4-175.3,271-247.1,449-172.7c135.5,58.5,194,167.4,215.2,411.8c37.2,393.2,191.3,717.3,472.9,977.7c263,241.8,542,353.3,985.6,398.5c183.3,18.6,297.5,101,337.4,244.4c50.5,191.3-50.5,377.3-241.7,430.4C4986.1,3780.6,4996.8,3780.6,4720.5,3748.7z"/>
            <path d="M698.2,1899.6c-140.8-87.7-164.7-172.7-146.1-568.5c61.1-1365.5,805-2656.7,1984.6-3445.8c547.3-364,1299.1-640.3,1934.1-712l164.7-18.6v-550c0-302.9,8-589.8,15.9-635l18.6-82.3h-183.3c-520.7,0-1339,100.9-1421.3,175.3c-193.9,175.4-518.1,29.2-549.9-244.4c-34.5-318.8,228.5-464.9,1030.8-573.9c175.3-23.9,616.4-34.5,1461.2-34.5c1296.5,0,1631.2,23.9,2035,148.8c324.1,98.3,435.7,204.6,435.7,409.1c0,292.2-313.5,472.9-536.7,305.5c-119.6-87.7-860.8-186-1424-186c-191.3,0-196.6,2.6-180.7,61.1c8,31.9,15.9,316.2,15.9,632.3v571.2l233.8,31.9c720,95.6,1461.2,395.8,2056.3,834.2c289.6,212.5,791.7,720,996.3,1012.2C8827.7-704,9085.4-207.2,9191.7,85.1c217.9,611,329.4,1479.8,217.9,1692.3c-116.9,223.2-478.2,223.2-595.1,0c-29.2-58.5-50.5-186-63.7-403.8c-31.9-531.3-138.2-929.9-369.3-1408.1c-183.3-374.6-371.9-648.3-664.2-951.1c-571.2-595.1-1259.3-967.1-2085.5-1123.8c-326.8-63.8-924.5-61.1-1275.2,0c-783.7,140.8-1437.3,483.5-2008.5,1052.1C1654.6-366.6,1303.9,411.8,1237.5,1402.8c-23.9,348-55.8,433-191.3,504.8C947.9,1958,785.9,1952.7,698.2,1899.6z"/>
        </g>
    </g>
</svg>
